<svg width="48px" height="48px" viewBox="0 0 48 48" xmlns="http://www.w3.org/2000/svg"><title>24 Technology Devices icons</title><rect x="7.04" y="7.04" width="33.91" height="33.91" rx="2" ry="2" transform="translate(0.07 -0.07) rotate(0.17)" fill="none" stroke="#000" stroke-miterlimit="10" stroke-width="2"/><rect x="16.02" y="16.02" width="15.96" height="15.96" rx="1" ry="1" transform="translate(0.07 -0.07) rotate(0.17)" fill="none" stroke="#000" stroke-miterlimit="10" stroke-width="2"/><line x1="24" y1="47.77" x2="24" y2="41.77" fill="none" stroke="#000" stroke-linecap="round" stroke-miterlimit="10" stroke-width="2"/><line x1="29" y1="47.77" x2="29" y2="41.77" fill="none" stroke="#000" stroke-linecap="round" stroke-miterlimit="10" stroke-width="2"/><line x1="34" y1="47.77" x2="34" y2="41.77" fill="none" stroke="#000" stroke-linecap="round" stroke-miterlimit="10" stroke-width="2"/><line x1="39" y1="47.77" x2="39" y2="41.77" fill="none" stroke="#000" stroke-linecap="round" stroke-miterlimit="10" stroke-width="2"/><line x1="9" y1="47.77" x2="9" y2="41.77" fill="none" stroke="#000" stroke-linecap="round" stroke-miterlimit="10" stroke-width="2"/><line x1="14" y1="47.77" x2="14" y2="41.77" fill="none" stroke="#000" stroke-linecap="round" stroke-miterlimit="10" stroke-width="2"/><line x1="19" y1="47.77" x2="19" y2="41.77" fill="none" stroke="#000" stroke-linecap="round" stroke-miterlimit="10" stroke-width="2"/><line x1="24" y1="7" x2="24" y2="1" fill="none" stroke="#000" stroke-linecap="round" stroke-miterlimit="10" stroke-width="2"/><line x1="29" y1="7" x2="29" y2="1" fill="none" stroke="#000" stroke-linecap="round" stroke-miterlimit="10" stroke-width="2"/><line x1="34" y1="7" x2="34" y2="1" fill="none" stroke="#000" stroke-linecap="round" stroke-miterlimit="10" stroke-width="2"/><line x1="39" y1="7" x2="39" y2="1" fill="none" stroke="#000" stroke-linecap="round" stroke-miterlimit="10" stroke-width="2"/><line x1="9" y1="7" x2="9" y2="1" fill="none" stroke="#000" stroke-linecap="round" stroke-miterlimit="10" stroke-width="2"/><line x1="14" y1="7" x2="14" y2="1" fill="none" stroke="#000" stroke-linecap="round" stroke-miterlimit="10" stroke-width="2"/><line x1="19" y1="7" x2="19" y2="1" fill="none" stroke="#000" stroke-linecap="round" stroke-miterlimit="10" stroke-width="2"/><line x1="7" y1="24" x2="1" y2="24" fill="none" stroke="#000" stroke-linecap="round" stroke-miterlimit="10" stroke-width="2"/><line x1="7" y1="19" x2="1" y2="19" fill="none" stroke="#000" stroke-linecap="round" stroke-miterlimit="10" stroke-width="2"/><line x1="7" y1="14" x2="1" y2="14" fill="none" stroke="#000" stroke-linecap="round" stroke-miterlimit="10" stroke-width="2"/><line x1="7" y1="9" x2="1" y2="9" fill="none" stroke="#000" stroke-linecap="round" stroke-miterlimit="10" stroke-width="2"/><line x1="7" y1="39" x2="1" y2="39" fill="none" stroke="#000" stroke-linecap="round" stroke-miterlimit="10" stroke-width="2"/><line x1="7" y1="34" x2="1" y2="34" fill="none" stroke="#000" stroke-linecap="round" stroke-miterlimit="10" stroke-width="2"/><line x1="7" y1="29" x2="1" y2="29" fill="none" stroke="#000" stroke-linecap="round" stroke-miterlimit="10" stroke-width="2"/><line x1="47" y1="24" x2="41" y2="24" fill="none" stroke="#000" stroke-linecap="round" stroke-miterlimit="10" stroke-width="2"/><line x1="47" y1="19" x2="41" y2="19" fill="none" stroke="#000" stroke-linecap="round" stroke-miterlimit="10" stroke-width="2"/><line x1="47" y1="14" x2="41" y2="14" fill="none" stroke="#000" stroke-linecap="round" stroke-miterlimit="10" stroke-width="2"/><line x1="47" y1="9" x2="41" y2="9" fill="none" stroke="#000" stroke-linecap="round" stroke-miterlimit="10" stroke-width="2"/><line x1="47" y1="39" x2="41" y2="39" fill="none" stroke="#000" stroke-linecap="round" stroke-miterlimit="10" stroke-width="2"/><line x1="47" y1="34" x2="41" y2="34" fill="none" stroke="#000" stroke-linecap="round" stroke-miterlimit="10" stroke-width="2"/><line x1="47" y1="29" x2="41" y2="29" fill="none" stroke="#000" stroke-linecap="round" stroke-miterlimit="10" stroke-width="2"/><rect width="48" height="48" fill="none"/></svg>